<svg xmlns="http://www.w3.org/2000/svg" xml:space="preserve" width="1000.158" height="215.38499" style="clip-rule:evenodd;fill-rule:evenodd;stroke-linejoin:round;stroke-miterlimit:1.41421" viewBox="0 0 1000.158 215.38499"><path d="M356.865 67.951h-30.26v106.29h-33.287V67.951h-30.26V40.717h93.807zM618.619 67.951h-30.26v106.29h-33.287V67.951h-30.26V40.717h93.807zM813.043 124.69v49.551h-33.287V41.473h33.287v.01c6.922 0 12.633-.003 14.305-.01 44.075-.177 49.605 28.354 49.476 40.952-.363 36.87-25.161 42.256-25.2 42.265h-.052l28.8 49.551h-39.338zm0-19.643c3.767.013 8.427.024 11.9.019 9.948-.015 19.117-5.021 19.117-18.959 0-13.539-9.396-18.266-20.57-18.18-3.828.03-7.694.035-10.447.032zM923.244 116.1l-43.628-74.627h39.338l20.933 35.805 20.933-35.805h39.338L956.53 116.1v58.142h-33.286zM691.622 38.447c38.622 0 69.978 31.017 69.978 69.221 0 38.204-31.356 69.221-69.978 69.221-38.621 0-69.977-31.017-69.977-69.221 0-38.204 31.356-69.22 69.977-69.22Zm0 29.882c20.877 0 37.826 17.627 37.826 39.339s-16.949 39.339-37.826 39.339-37.825-17.627-37.825-39.339 16.948-39.339 37.825-39.339zM403.012 40.718v133.524h-33.286V40.718zM482.446 80.055h31.774s-.639-40.158-46.147-40.851c-34.399-.525-43.213 25.527-43.878 27.99-10.048 37.214 21.485 48.663 25.721 50.687 11.516 5.502 27.235 9.961 30.26 15.13 3.027 5.17.465 16.014-12.86 15.887-16.927-.161-14.374-15.13-14.374-15.13H421.17s-3.987 41.276 44.634 43.121c24.438.927 39.212-11.096 45.39-22.695 10.104-18.97.885-39.431-8.32-46.904-10.07-8.174-31.628-14.636-40.852-18.913-12.964-6.01-7.53-21.188 6.747-21.115 14.276.073 13.678 12.793 13.678 12.793"/><circle cx="166" cy="117" r="142" style="fill:#eb531f" transform="matrix(.7584 0 0 .7584 -18.202 18.96)"/><circle cx="93" cy="103" r="25" style="fill:#fff" transform="matrix(.74258 0 0 .74258 -7.961 -5.214)"/><circle cx="93" cy="103" r="25" style="fill:#fff" transform="matrix(.74258 0 0 .74258 38.632 -5.214)"/><circle cx="93" cy="103" r="25" style="fill:#fff" transform="matrix(.74258 0 0 .74258 38.632 41.38)"/><circle cx="93" cy="103" r="25" style="fill:#fff" transform="matrix(.74258 0 0 .74258 38.632 87.973)"/><circle cx="93" cy="103" r="25" style="fill:#fff" transform="matrix(.74258 0 0 .74258 85.226 -5.214)"/></svg>